<svg width="10" height="10" viewBox="0 0 10 10" fill="none" xmlns="http://www.w3.org/2000/svg">
<path d="M0.208953 0.217875C0.342786 0.0840827 0.524278 0.00892216 0.713518 0.00892216C0.902757 0.00892216 1.08425 0.0840827 1.21808 0.217875L4.99554 3.99533L8.77299 0.217875C8.83883 0.149712 8.91758 0.0953434 9.00465 0.0579406C9.09172 0.0205379 9.18537 0.00085039 9.28013 2.69461e-05C9.37489 -0.000796498 9.46886 0.0172604 9.55657 0.0531444C9.64428 0.0890284 9.72396 0.142021 9.79097 0.209029C9.85798 0.276037 9.91097 0.35572 9.94686 0.443428C9.98274 0.531135 10.0008 0.625111 9.99997 0.719872C9.99915 0.814632 9.97946 0.90828 9.94206 0.99535C9.90466 1.08242 9.85029 1.16117 9.78212 1.227L6.00467 5.00446L9.78212 8.78192C9.91213 8.91652 9.98406 9.09679 9.98243 9.28391C9.98081 9.47103 9.90575 9.65003 9.77343 9.78235C9.64111 9.91467 9.46211 9.98973 9.27499 9.99136C9.08787 9.99298 8.90759 9.92105 8.77299 9.79105L4.99554 6.01359L1.21808 9.79105C1.08348 9.92105 0.903208 9.99298 0.716086 9.99136C0.528964 9.98973 0.349967 9.91467 0.217646 9.78235C0.0853262 9.65003 0.0102701 9.47103 0.00864407 9.28391C0.00701803 9.09679 0.0789523 8.91652 0.208953 8.78192L3.98641 5.00446L0.208953 1.227C0.0751606 1.09317 0 0.91168 0 0.72244C0 0.5332 0.0751606 0.351708 0.208953 0.217875Z" fill="white"/>
</svg>
